Genre:Action | Drama
Language:English 
http://www.imdb.com/title/tt1792543/
Source:BluRay.720p.DTS.X264.CHD Thanks!

Format : MPEG-4
Format profile : Base Media
Codec ID : isom
File size : 2.28 GiB
Duration : 1h 36mn
Overall bit rate : 3 395 Kbps

Video
ID : 1
Format : AVC
Format/Info : Advanced Video Codec
Format profile : High@L5.1
Format settings, CABAC : Yes
Format settings, ReFrames : 3 frames
Codec ID : avc1
Codec ID/Info : Advanced Video Coding
Duration : 1h 36mn
Bit rate mode : Variable
Bit rate : 3 000 Kbps
Maximum bit rate : 16.8 Mbps
Width : 1 280 pixels
Height : 688 pixels
Display aspect ratio : 1.860
Frame rate mode : Constant
Frame rate : 23.976 fps
Color space : YUV
Chroma subsampling : 4:2:0
Bit depth : 8 bits
Scan type : Progressive
Bits/(Pixel*Frame) : 0.142
Stream size : 1.98 GiB (87%)
Writing library : x264

Audio
ID : 2
Format : AAC
Format/Info : Advanced Audio Codec
Format version : Version 4
Format profile : LC
Format settings, SBR : No
Codec ID : 40
Duration : 1h 36mn
Bit rate mode : Variable
Bit rate : 436 Kbps
Maximum bit rate : 531 Kbps
Channel(s) : 6 channels
Channel positions : Front: L C R, Side: L R, LFE
Sampling rate : 48.0 KHz
Stream size : 300 MiB (13%)


Plot:
Sam and Leo Cleary have grown up hating each other, and neither likes their juvenile delinquent kid brother..
 
http://img694.imageshack.us/img694/5550/vlcsnap00001mn.png
 
http://img534.imageshack.us/img534/6509/vlcsnap00002ex.png
 
http://img690.imageshack.us/img690/9545/vlcsnap00003ei.png
